<svg xmlns="http://www.w3.org/2000/svg" xmlns:xlink="http://www.w3.org/1999/xlink" aria-hidden="true" role="img" class="iconify iconify--logos" width="31.88" height="32" preserveAspectRatio="xMidYMid meet" viewBox="0 0 256 257"><defs><linearGradient id="IconifyId18130fe87618122c559" x1="-.899%" x2="57.636%" y1="7.652%" y2="78.411%"><stop offset="0%" stop-color="#41D1FF"></stop><stop offset="100%" stop-color="#BD34FE"></stop></linearGradient><linearGradient id="IconifyId18130fe87618122c559" x1="44.74%" x2="50.136%" y1="2.242%" y2="89.03%"><stop offset="0%" stop-color="#FFBD4F"></stop><stop offset="100%" stop-color="#FF9640"></stop></linearGradient></defs><path fill="url(#IconifyId18130fe87618122c559)" d="M255.153 37.999L134.897 252.976c-2.483 4.466-8.862 4.466-11.345 0L.845 37.999c-2.746-4.914 1.371-10.853 6.801-9.67l120.373 26.223a6.537 6.537 0 0 0 2.816 0l117.517-26.223c5.43-1.183 9.547 4.756 6.801 9.67Z"></path><path fill="url(#IconifyId18130fe87618122c559)" d="M125.733 4.094L94.191 195.185c-.704 4.264 3.576 7.629 7.538 5.937l124.202-52.988c4.014-1.714 3.879-7.468-.214-8.97l-91.867-33.704a3.268 3.268 0 0 1-1.92-2.066L99.553 12.668c-1.249-4.08-7.183-4.08-8.432 0l-16.37 53.656c-.944 3.09-4.843 4.09-7.18 1.834L.918 4.985c-2.57-2.48-.431-6.795 3.082-6.367l114.07 13.908c3.276.4 5.983 3.092 7.663 5.568Z"></path></svg>
